<?xml version="1.0" encoding="utf-8"?>
<!-- Generator: Adobe Illustrator 17.0.0, SVG Export Plug-In . SVG Version: 6.00 Build 0)  -->
<!DOCTYPE svg PUBLIC "-//W3C//DTD SVG 1.1//EN" "http://www.w3.org/Graphics/SVG/1.1/DTD/svg11.dtd">
<svg version="1.1" id="Layer_1" xmlns="http://www.w3.org/2000/svg" xmlns:xlink="http://www.w3.org/1999/xlink" x="0px" y="0px"
	 width="238.933px" height="296.02px" viewBox="0 0 238.933 296.02" enable-background="new 0 0 238.933 296.02"
	 xml:space="preserve">
<polygon opacity="0.7" fill="#016C97" points="119.466,58.989 138.388,0 138.155,61.949 174.379,11.694 155.014,70.539 
	204.995,33.938 168.394,83.918 227.239,64.554 176.984,100.778 238.933,100.545 179.944,119.466 238.933,138.388 176.984,138.155 
	227.239,174.379 168.394,155.014 204.995,204.995 155.014,168.394 174.379,227.239 138.155,176.984 138.388,238.933 
	119.466,179.944 100.545,238.933 100.778,176.984 64.554,227.239 83.918,168.394 33.938,204.995 70.539,155.014 11.694,174.379 
	61.949,138.155 0,138.388 58.989,119.466 0,100.545 61.949,100.778 11.694,64.554 70.539,83.918 33.938,33.938 83.918,70.539 
	64.554,11.694 100.778,61.949 100.545,0 "/>
</svg>
