<svg xmlns="http://www.w3.org/2000/svg" xmlns:xlink="http://www.w3.org/1999/xlink" id="Layer_1" width="238.933" height="296.02" x="0" y="0" enable-background="new 0 0 238.933 296.02" version="1.1" viewBox="0 0 238.933 296.02" xml:space="preserve"><polygon fill="#016C97" points="119.466 58.989 138.388 0 138.155 61.949 174.379 11.694 155.014 70.539 204.995 33.938 168.394 83.918 227.239 64.554 176.984 100.778 238.933 100.545 179.944 119.466 238.933 138.388 176.984 138.155 227.239 174.379 168.394 155.014 204.995 204.995 155.014 168.394 174.379 227.239 138.155 176.984 138.388 238.933 119.466 179.944 100.545 238.933 100.778 176.984 64.554 227.239 83.918 168.394 33.938 204.995 70.539 155.014 11.694 174.379 61.949 138.155 0 138.388 58.989 119.466 0 100.545 61.949 100.778 11.694 64.554 70.539 83.918 33.938 33.938 83.918 70.539 64.554 11.694 100.778 61.949 100.545 0" opacity=".7"/></svg>